<?xml version="1.0" standalone="no"?>
<!DOCTYPE svg PUBLIC "-//W3C//DTD SVG 20010904//EN"
 "http://www.w3.org/TR/2001/REC-SVG-20010904/DTD/svg10.dtd">
<svg version="1.0" xmlns="http://www.w3.org/2000/svg"
 width="225.000000pt" height="225.000000pt" viewBox="0 0 225.000000 225.000000"
 preserveAspectRatio="xMidYMid meet">
<metadata>
Created by potrace 1.14, written by Peter Selinger 2001-2017
</metadata>
<g transform="translate(0.000000,225.000000) scale(0.100000,-0.100000)"
fill="#000000" stroke="none">
<path d="M1214 1769 c-33 -16 -78 -49 -102 -72 -37 -36 -52 -43 -110 -54 -67
-11 -68 -11 -139 24 -87 42 -170 54 -207 30 -19 -13 -27 -31 -36 -84 -15 -84
-3 -159 40 -251 32 -69 37 -111 18 -142 -10 -15 -10 -24 -1 -39 6 -10 9 -28 6
-39 -3 -14 4 -30 21 -47 26 -26 26 -26 4 -19 -13 3 -34 14 -48 24 -59 41 -105
32 -136 -26 -15 -27 -16 -39 -8 -62 10 -25 8 -32 -17 -60 -25 -28 -35 -32 -77
-32 l-49 0 -88 -122 c-48 -67 -88 -129 -89 -137 -1 -8 13 -22 29 -30 17 -9 34
-22 38 -29 17 -26 65 -42 92 -32 24 9 26 8 20 -11 -9 -26 8 -39 52 -39 17 0
35 -4 38 -10 3 -5 22 -10 42 -10 29 0 49 12 115 67 l80 66 -7 116 c-4 64 -9
124 -12 135 -3 10 -1 17 4 15 128 -54 123 -50 124 -93 1 -23 4 -54 8 -71 9
-36 -34 -208 -52 -214 -7 -2 -29 -22 -50 -44 -33 -36 -37 -46 -34 -82 4 -39 5
-40 53 -54 69 -19 616 -27 765 -12 117 13 159 25 141 43 -22 22 -106 30 -379
35 -276 5 -282 6 -272 25 22 42 94 101 157 131 59 28 77 32 154 32 83 0 89 -2
180 -48 51 -26 105 -47 119 -47 30 0 92 42 132 89 30 36 32 45 16 90 -13 38
-81 85 -111 78 -12 -4 -35 5 -58 22 -35 25 -37 29 -23 44 9 8 21 36 27 62 l12
46 17 -54 17 -54 99 -32 c107 -33 129 -32 165 8 11 11 24 21 31 21 7 0 20 9
30 20 14 15 15 23 6 33 -14 17 -5 27 25 27 15 0 30 10 40 28 10 15 28 43 41
63 12 19 23 40 23 46 0 6 -59 48 -132 93 -116 73 -134 81 -155 71 -32 -15 -33
-15 -33 13 0 14 -11 37 -24 52 -18 22 -32 28 -60 27 -20 -1 -36 3 -36 8 0 13
-41 32 -70 31 -35 -1 -73 -23 -104 -60 -17 -19 -33 -29 -42 -25 -11 4 -12 9
-5 16 18 18 13 65 -9 77 -34 18 -41 43 -25 95 23 77 28 148 15 211 -13 61 -44
133 -64 146 -23 16 -76 7 -132 -23z m159 -85 c12 -35 16 -70 14 -127 -4 -79
-21 -122 -31 -76 -10 48 -17 94 -16 114 1 44 -11 85 -25 85 -19 0 -19 10 1 38
22 32 36 24 57 -34z m-673 -69 c20 -21 21 -25 7 -25 -16 0 -17 -11 -12 -110 6
-119 -4 -140 -29 -62 -22 68 -29 125 -22 177 8 51 22 56 56 20z m455 -224 c5
-9 -55 -45 -62 -37 -3 2 0 14 7 25 11 21 44 28 55 12z m-271 -47 c4 -11 0 -15
-16 -12 -12 2 -23 9 -26 16 -6 18 35 15 42 -4z m740 -56 c9 -12 16 -33 16 -45
0 -34 -27 -18 -49 28 -19 38 -19 39 -1 39 11 0 26 -10 34 -22z m-67 -6 c6 -4
13 -16 15 -27 2 -16 -2 -20 -25 -18 -22 1 -27 -2 -23 -15 20 -67 19 -71 -24
-127 -41 -53 -94 -106 -60 -60 8 11 29 37 47 58 35 39 42 81 23 132 -17 43 12
79 47 57z m-342 -96 c14 -9 25 -20 25 -25 0 -14 -76 -79 -119 -101 -58 -29
-145 -36 -212 -16 -83 24 -86 28 -66 70 18 39 90 91 114 82 22 -9 10 -31 -20
-34 l-27 -3 20 -39 c42 -82 133 -61 154 33 6 27 5 28 -21 23 -36 -8 -61 7 -45
26 15 19 163 6 197 -16z m738 -82 c42 -26 77 -50 77 -55 0 -4 -8 -14 -18 -21
-10 -7 -22 -25 -26 -40 -3 -16 -12 -28 -19 -28 -7 0 -47 35 -90 78 l-78 79 18
31 c16 28 20 30 39 17 11 -7 55 -35 97 -61z m-1373 -19 c-7 -9 -13 -28 -14
-42 -1 -33 -26 -44 -26 -11 0 26 26 68 42 68 6 0 6 -6 -2 -15z m70 -10 c11
-13 10 -18 -6 -30 -28 -21 -54 -19 -54 5 0 10 8 24 18 29 23 14 27 13 42 -4z
m1154 -20 c17 -25 16 -25 -4 -13 -16 10 -24 10 -40 0 -34 -21 -37 -13 -5 13
17 13 31 24 31 25 1 0 9 -11 18 -25z m-497 -57 c1 -35 2 -109 3 -165 2 -85 5
-105 21 -119 29 -26 90 -13 141 30 47 41 54 42 86 20 21 -14 21 -17 7 -44 -22
-42 -19 -44 22 -15 37 25 83 34 83 16 0 -5 10 -11 23 -13 14 -2 22 -10 22 -23
0 -11 4 -23 9 -26 5 -4 6 -19 2 -33 -6 -26 -68 -66 -102 -66 -9 0 -56 20 -104
44 -122 61 -206 75 -314 53 -126 -26 -184 -68 -296 -216 -31 -41 -96 -54 -124
-25 -15 14 -22 15 -37 6 -25 -16 -29 -15 -29 7 0 11 9 23 21 26 12 4 18 13 15
20 -3 9 3 15 17 17 16 2 26 15 36 48 8 25 16 39 19 32 7 -22 63 -44 95 -38 68
14 84 59 41 117 -57 74 -77 136 -80 242 -3 87 -1 98 13 93 112 -43 262 -23
363 48 19 14 37 25 40 26 3 0 6 -28 7 -62z m389 34 c6 -4 13 -15 17 -25 5 -15
2 -14 -23 5 -17 12 -30 23 -30 25 0 6 25 3 36 -5z m-946 -78 c28 -10 50 -24
50 -31 0 -20 -20 -16 -98 22 -70 33 -84 49 -61 72 9 9 18 4 35 -17 13 -15 47
-36 74 -46z m1190 -11 c0 -2 -6 -3 -13 -3 -8 0 -29 21 -47 48 l-33 47 46 -45
c26 -24 47 -45 47 -47z m-451 14 c-13 -72 -24 -86 -37 -49 -9 26 -7 35 15 67
14 20 26 35 28 33 2 -2 -1 -25 -6 -51z m-959 -16 c-6 -12 -15 -21 -21 -21 -5
0 -2 11 8 24 21 28 29 27 13 -3z m41 -155 c-13 -26 -17 -29 -19 -14 -2 11 2
26 8 34 22 25 28 15 11 -20z m-43 9 c2 -2 -15 -4 -36 -7 -28 -2 -38 0 -35 9 4
10 58 8 71 -2z"/>
<path d="M1905 1075 c30 -26 65 -49 65 -42 0 2 -21 18 -47 36 -36 25 -41 26
-18 6z"/>
<path d="M1615 1786 c-73 -32 -107 -111 -81 -186 8 -24 12 -57 9 -78 -6 -34
-6 -35 23 -27 16 4 62 8 102 9 72 1 74 2 111 42 52 55 60 101 29 162 -13 25
-35 55 -49 65 -34 25 -105 31 -144 13z m126 -33 c32 -19 59 -68 59 -106 0 -69
-108 -125 -196 -101 -26 7 -54 63 -54 107 0 37 29 85 62 103 33 19 95 17 129
-3z"/>
<path d="M1624 1682 c-16 -16 -8 -35 28 -69 l24 -23 33 34 c27 28 31 38 23 53
-13 22 -87 26 -108 5z"/>
</g>
</svg>
